<svg width="57" height="81" viewBox="0 0 57 81" fill="none" xmlns="http://www.w3.org/2000/svg">
<g clip-path="url(#clip0)">
<path d="M0 24V80.0232L28.0121 73.452L56.0243 80.0232V24H0ZM37.044 62.374L36.0888 59.9036C34.7718 61.5836 31.4453 62.7358 27.4608 62.7358C20.1164 62.7358 15.4082 59.6732 15.21 53.0535C15.21 52.0326 15.111 50.6165 15.111 49.3317C15.111 48.0481 15.1767 46.2034 15.21 45.6111C15.3748 39.8809 19.8213 35.9287 27.9551 35.9287C35.4308 35.9287 39.3497 39.2553 39.7449 44.0625C39.7772 44.3264 39.7772 45.6434 39.7772 45.6768H34.5413C34.5413 45.4129 34.508 44.9854 34.4756 44.7216C33.9157 42.1198 31.9396 40.8017 27.6912 40.8017C23.1467 40.8017 20.8088 42.4159 20.5127 45.5777C20.447 46.4338 20.3802 48.3432 20.3802 49.3974C20.3802 50.1556 20.4793 52.4924 20.545 53.2183C20.8088 55.9837 23.0154 57.8607 27.856 57.8607C31.9062 57.8607 34.4423 56.5437 34.8041 54.4039C34.8375 54.2058 34.9032 53.1526 34.9032 52.823H26.736V48.3442H40.04C40.04 48.3442 39.9753 52.4935 39.9753 54.5019C39.9753 57.696 40.139 62.3729 40.139 62.3729H37.044V62.374Z" fill="#333333"/>
</g>
<rect width="56" height="24" fill="#333333"/>
<defs>
<clipPath id="clip0">
<rect y="24" width="56.0232" height="56.0232" fill="white"/>
</clipPath>
</defs>
</svg>
